<?xml version="1.0" standalone="no"?>
<!DOCTYPE svg PUBLIC "-//W3C//DTD SVG 20010904//EN"
 "http://www.w3.org/TR/2001/REC-SVG-20010904/DTD/svg10.dtd">
<svg version="1.0" xmlns="http://www.w3.org/2000/svg"
 width="246.000000pt" height="345.000000pt" viewBox="0 0 246.000000 345.000000"
 preserveAspectRatio="xMidYMid meet">

<g transform="translate(0.000000,345.000000) scale(0.100000,-0.100000)"
fill="#000000" stroke="none">
<path d="M0 1725 l0 -1725 1230 0 1230 0 0 1725 0 1725 -1230 0 -1230 0 0
-1725z m1410 655 c13 -25 16 -85 5 -129 -7 -28 -6 -33 6 -25 22 14 142 5 155
-12 6 -8 21 -14 33 -14 37 0 22 -17 -21 -24 -24 -4 -49 -8 -56 -8 -19 -2 -28
-32 -36 -120 -4 -42 -14 -85 -21 -95 -13 -17 -14 -17 -37 4 l-23 22 -2 -97
c-1 -53 -3 -115 -4 -137 -1 -22 6 -71 15 -110 13 -50 20 -131 25 -285 5 -188
8 -219 25 -243 24 -35 11 -51 -35 -42 l-34 6 -3 189 c-1 143 -6 195 -17 216
-8 16 -18 43 -21 61 -3 18 -12 37 -19 43 -15 12 -14 16 -41 -140 -9 -52 -25
-141 -35 -196 -10 -56 -19 -125 -19 -153 0 -44 -3 -51 -20 -51 -23 0 -23 -4
-10 171 5 70 16 158 25 195 12 54 16 130 17 342 0 149 4 272 8 272 4 0 10 39
14 86 6 80 26 144 45 144 4 0 11 27 14 60 5 62 19 90 43 90 7 0 18 -9 24 -20z
m-1246 -722 c31 -44 22 -58 -39 -58 l-55 0 0 -95 0 -95 55 0 c46 0 55 -3 55
-18 0 -38 -29 -62 -75 -62 -68 0 -75 17 -75 175 0 158 7 175 75 175 34 0 47
-5 59 -22z m170 0 c23 -32 23 -274 0 -306 -21 -30 -108 -32 -124 -3 -5 11 -10
81 -10 156 0 75 5 145 10 156 16 29 103 27 124 -3z m193 -129 c4 -179 -1 -193
-73 -197 -75 -4 -78 2 -82 185 -3 108 -1 153 7 153 21 0 31 -51 31 -156 l0
-104 40 0 40 0 0 128 c0 71 3 132 7 136 22 21 28 -10 30 -145z m82 98 c11 -23
32 -69 45 -102 l25 -60 1 65 c0 71 15 140 31 140 6 0 8 -63 7 -167 -4 -210
-12 -216 -80 -58 l-47 110 -3 -110 c-2 -90 -6 -110 -18 -110 -13 0 -15 26 -18
160 -1 87 0 165 2 172 9 22 34 3 55 -40z m271 29 c0 -40 -11 -56 -36 -56 l-24
0 0 -135 c0 -113 -2 -135 -15 -135 -13 0 -15 22 -15 135 l0 135 -30 0 c-24 0
-30 4 -30 21 0 47 17 59 85 59 62 0 65 -1 65 -24z m146 11 c3 -8 0 -26 -5 -40
-9 -23 -16 -27 -51 -27 -38 0 -40 -2 -40 -30 0 -28 2 -30 40 -30 34 0 40 -3
40 -21 0 -37 -19 -59 -50 -59 -25 0 -30 -4 -30 -25 0 -23 3 -25 50 -25 54 0
59 -6 40 -55 -9 -24 -13 -26 -67 -23 l-58 3 -3 160 c-1 87 0 165 2 172 7 18
125 18 132 0z m144 -7 c16 -16 20 -33 20 -92 0 -39 -5 -86 -12 -104 -9 -26 -8
-39 5 -73 23 -57 22 -73 -5 -69 -18 2 -27 18 -50 93 -15 50 -28 93 -28 98 0 4
11 7 25 7 29 0 40 19 31 55 -5 21 -12 25 -41 25 l-35 0 0 -135 c0 -113 -2
-135 -15 -135 -13 0 -15 26 -15 175 l0 175 50 0 c37 0 55 -5 70 -20z m464 4
c9 -8 16 -26 16 -40 0 -22 -3 -24 -55 -24 -54 0 -55 0 -55 -30 0 -29 1 -30 50
-30 61 0 65 -7 65 -106 0 -89 -11 -104 -75 -104 -51 0 -66 11 -72 50 -3 24 0
25 55 28 56 3 57 4 57 32 0 29 -1 30 -49 30 -46 0 -50 2 -60 31 -15 44 -14
103 3 144 14 33 18 35 60 35 27 0 51 -6 60 -16z m176 -3 c0 -32 -12 -52 -36
-62 -24 -8 -24 -11 -24 -139 0 -109 -2 -130 -15 -130 -13 0 -15 22 -15 134 l0
135 -27 3 c-23 2 -28 7 -25 27 4 41 20 51 83 51 51 0 59 -2 59 -19z m134 6
c26 -19 33 -127 13 -186 -15 -41 -14 -47 4 -93 17 -43 17 -49 3 -55 -23 -9
-38 14 -62 92 -28 89 -27 95 3 95 23 0 25 4 25 40 0 39 -1 40 -35 40 l-34 0
-3 -132 c-3 -110 -6 -133 -18 -133 -13 0 -15 26 -18 160 -1 87 0 165 2 172 7
17 97 17 120 0z m91 -163 c0 -144 -2 -169 -15 -169 -13 0 -15 26 -18 160 -3
166 0 189 21 182 9 -3 12 -46 12 -173z m75 107 l5 -63 32 66 c24 49 38 66 53
66 27 0 26 -9 -15 -97 l-35 -75 43 -80 42 -79 5 163 5 163 59 3 c32 2 63 -1
68 -6 4 -4 3 -22 -3 -40 -10 -29 -15 -32 -50 -32 -37 0 -39 -2 -39 -30 0 -28
2 -30 41 -30 41 0 41 0 35 -32 -7 -36 -20 -48 -53 -48 -18 0 -23 -6 -23 -25 0
-23 3 -25 51 -25 51 0 51 0 44 -27 -12 -49 -22 -54 -109 -51 l-81 3 -35 65
-35 65 -5 -65 c-4 -49 -9 -65 -20 -65 -13 0 -15 26 -18 160 -1 87 0 165 3 173
12 32 30 2 35 -57z m287 27 c-3 -7 -5 -2 -5 12 0 14 2 19 5 13 2 -7 2 -19 0
-25z m-828 -444 c3 -16 1 -17 -13 -5 -14 12 -16 9 -16 -28 0 -22 5 -41 11 -41
6 0 8 9 4 20 -4 11 -2 20 4 20 14 0 14 -57 0 -66 -6 -3 -16 -1 -22 5 -12 12
-14 91 -3 110 11 17 30 8 35 -15z m42 -74 c5 0 9 -7 9 -15 0 -8 -7 -15 -15
-15 -12 0 -15 13 -13 68 2 63 2 64 5 15 2 -29 8 -53 14 -53z m64 34 c0 -46 -3
-59 -15 -59 -11 0 -16 13 -18 49 -4 56 3 79 21 73 8 -2 12 -24 12 -63z m60 1
c0 -49 -3 -60 -17 -63 -16 -3 -18 5 -18 63 0 58 2 66 18 63 14 -3 17 -14 17
-63z m59 28 c3 -21 6 -49 6 -63 0 -20 -2 -22 -10 -10 -9 13 -11 13 -20 0 -8
-12 -10 -10 -10 10 0 40 12 100 20 100 4 0 10 -17 14 -37z m47 -63 c5 0 9 -7
9 -16 0 -9 -6 -14 -12 -12 -9 3 -13 27 -14 69 -1 55 0 56 3 12 2 -29 8 -53 14
-53z m103 84 c12 -31 6 -91 -10 -105 -21 -17 -34 3 -34 53 0 45 8 68 25 68 7
0 16 -7 19 -16z m56 6 c0 -5 -4 -10 -10 -10 -14 0 -12 -27 3 -33 10 -4 10 -7
0 -18 -7 -7 -13 -21 -13 -31 0 -10 -5 -18 -10 -18 -6 0 -9 19 -6 48 2 26 4 53
5 60 1 14 31 17 31 2z m50 0 c0 -5 -4 -10 -10 -10 -14 0 -12 -28 3 -33 9 -3 9
-7 1 -18 -7 -8 -14 -23 -17 -34 -2 -11 -5 8 -6 43 -1 49 2 62 14 62 8 0 15 -4
15 -10z m50 2 c0 -4 -6 -14 -12 -20 -10 -10 -10 -15 2 -23 11 -8 12 -12 3 -16
-15 -6 -17 -33 -3 -33 6 0 10 -7 10 -15 0 -8 -7 -15 -15 -15 -12 0 -15 14 -15
65 0 51 3 65 15 65 8 0 15 -4 15 -8z m46 -24 l8 -33 7 35 c5 28 7 21 8 -32 0
-40 -3 -68 -9 -68 -5 0 -10 9 -10 19 0 29 -18 35 -23 9 -2 -13 -5 5 -6 40 -1
66 12 83 25 30z m83 6 c3 -16 1 -17 -13 -5 -14 11 -16 11 -16 -2 0 -8 7 -18
16 -21 20 -8 16 -71 -6 -71 -8 0 -16 8 -18 17 -2 13 1 16 12 12 9 -3 16 -1 16
5 0 7 -7 14 -15 17 -15 6 -21 55 -8 68 11 11 28 1 32 -20z m28 -66 c-2 -18 -4
-4 -4 32 0 36 2 50 4 33 2 -18 2 -48 0 -65z m46 42 c3 8 8 24 11 35 3 11 3 -6
0 -39 -2 -32 -8 -64 -12 -70 -8 -14 -20 36 -20 89 l1 40 7 -35 c4 -22 9 -30
13 -20z m67 42 c0 -4 -6 -14 -12 -20 -10 -10 -10 -15 2 -23 11 -8 12 -12 3
-16 -15 -6 -17 -33 -3 -33 6 0 10 -7 10 -15 0 -8 -7 -15 -15 -15 -12 0 -15 14
-15 65 0 51 3 65 15 65 8 0 15 -4 15 -8z"/>
<path d="M1457 2115 c-4 -8 -2 -17 3 -20 6 -4 10 3 10 14 0 25 -6 27 -13 6z"/>
<path d="M230 1506 l0 -96 40 0 40 0 0 85 c0 47 1 88 3 93 1 4 -17 8 -40 10
l-43 3 0 -95z"/>
<path d="M1650 1155 c0 -19 5 -35 10 -35 6 0 10 16 10 35 0 19 -4 35 -10 35
-5 0 -10 -16 -10 -35z"/>
<path d="M1710 1180 c0 -5 5 -10 10 -10 6 0 10 5 10 10 0 6 -4 10 -10 10 -5 0
-10 -4 -10 -10z"/>
<path d="M1710 1135 c0 -8 5 -15 10 -15 6 0 10 7 10 15 0 8 -4 15 -10 15 -5 0
-10 -7 -10 -15z"/>
<path d="M1916 1178 c-5 -16 -5 -36 0 -45 7 -16 8 -15 11 5 3 12 3 32 0 45 -3
21 -4 20 -11 -5z"/>
</g>
</svg>
