<?xml version="1.0" standalone="no"?>
<!DOCTYPE svg PUBLIC "-//W3C//DTD SVG 20010904//EN"
 "http://www.w3.org/TR/2001/REC-SVG-20010904/DTD/svg10.dtd">
<svg version="1.0" xmlns="http://www.w3.org/2000/svg"
 width="246.000000pt" height="345.000000pt" viewBox="0 0 246.000000 345.000000"
 preserveAspectRatio="xMidYMid meet">

<g transform="translate(0.000000,345.000000) scale(0.100000,-0.100000)"
fill="#000000" stroke="none">
<path d="M1242 2804 c-14 -9 -22 -25 -21 -37 0 -12 1 -37 0 -54 -1 -28 -5 -33
-26 -33 -20 0 -25 -5 -25 -25 0 -22 -3 -24 -19 -15 -28 14 -28 14 -56 -28 -20
-30 -25 -49 -23 -90 2 -41 -2 -56 -20 -75 -20 -21 -23 -38 -31 -205 -4 -101
-11 -186 -15 -189 -3 -3 -6 47 -6 111 0 101 -2 117 -15 112 -12 -4 -15 3 -15
29 0 18 -4 36 -9 39 -5 3 -9 28 -9 56 -1 35 -8 63 -25 91 l-25 41 -28 -44
c-26 -38 -28 -49 -22 -88 3 -25 7 -64 7 -87 l1 -42 -41 4 c-39 4 -41 3 -36
-21 3 -16 0 -27 -9 -30 -47 -14 -46 -13 -18 -37 27 -23 28 -28 28 -121 1 -53
-1 -97 -4 -97 -30 -8 -50 -5 -46 7 3 8 1 14 -4 14 -6 0 -3 16 5 37 24 58 11
49 -34 -22 -42 -68 -56 -109 -21 -65 17 21 21 23 30 10 5 -8 10 -18 10 -22 0
-11 -42 -38 -52 -32 -4 3 -8 0 -8 -6 0 -6 -4 -9 -10 -5 -10 6 -50 -13 -62 -30
-5 -7 -8 -7 -8 0 0 6 -4 4 -9 -3 -6 -10 -10 -7 -13 13 -5 22 -1 27 23 32 24 4
27 8 18 19 -9 11 -8 14 2 14 11 1 10 4 -2 13 -25 19 -25 25 -4 41 11 9 15 16
8 16 -7 0 -10 7 -7 15 4 10 -2 18 -17 24 -22 8 -23 10 -5 17 18 7 18 8 -5 16
-18 7 -20 11 -10 17 11 7 10 11 -5 20 -17 9 -17 12 -4 21 15 10 11 16 -25 35
-6 3 -5 8 3 11 10 5 8 10 -7 21 -12 8 -19 18 -16 23 8 13 -46 73 -56 63 -11
-11 -17 -193 -7 -193 10 0 6 -43 -6 -59 -9 -12 -8 -13 4 -9 13 5 15 -3 15 -41
-1 -52 4 -73 15 -66 4 2 5 -7 2 -22 -3 -18 -1 -24 7 -19 6 4 11 1 11 -6 0 -11
2 -11 9 0 10 16 34 12 43 -8 10 -23 9 -42 -2 -35 -5 3 -10 1 -10 -4 0 -6 -7
-11 -15 -11 -18 0 -19 -8 -2 -43 7 -17 17 -25 26 -22 21 8 -18 -34 -44 -47
-18 -9 -17 -8 3 15 14 15 19 26 12 29 -6 2 -12 10 -13 18 -2 8 -11 25 -22 37
-10 12 -20 28 -21 35 -2 7 -5 20 -6 28 -2 8 -7 21 -11 28 -5 6 -5 12 0 12 4 0
1 5 -7 10 -8 5 -15 13 -16 17 -1 13 -17 48 -24 53 -3 3 -14 16 -23 29 -14 22
-17 22 -23 7 -4 -9 -4 -40 0 -69 3 -29 8 -73 11 -100 6 -62 20 -87 46 -82 23
5 37 -21 21 -37 -7 -7 -4 -20 9 -42 19 -32 19 -33 -4 -53 -46 -41 -50 -40 -45
12 l6 48 -82 -7 c-44 -3 -129 -6 -188 -6 l-108 0 0 -518 0 -518 113 17 c670
101 1496 101 2205 1 l122 -18 0 518 c0 408 -3 518 -12 518 -7 -1 -89 -9 -181
-19 l-169 -18 -9 26 c-5 14 -21 35 -35 47 -23 19 -25 25 -18 73 7 54 28 77 45
50 7 -11 9 -11 9 3 0 9 -9 20 -21 23 -11 4 -24 18 -30 32 -11 28 -12 143 -1
127 9 -14 42 -26 42 -15 0 16 32 22 47 9 11 -9 16 -9 24 3 5 8 9 10 9 4 1 -20
29 41 30 64 0 36 -35 102 -82 156 -39 44 -44 47 -81 42 -29 -4 -51 -17 -83
-48 -47 -47 -67 -94 -57 -140 7 -38 16 -42 39 -20 15 14 24 16 42 8 12 -6 22
-16 22 -24 0 -7 5 -13 10 -13 6 0 10 -5 10 -11 0 -5 -4 -7 -10 -4 -5 3 -10 1
-10 -5 0 -6 6 -13 14 -16 11 -4 15 -25 15 -85 0 -54 -3 -78 -11 -73 -6 4 -8
-1 -4 -14 8 -23 -12 -102 -25 -102 -16 0 -20 20 -8 42 12 23 11 23 -8 5 -19
-17 -22 -17 -37 -2 -9 9 -14 21 -11 26 4 5 -1 6 -9 3 -11 -4 -16 0 -16 11 0
15 -3 15 -15 5 -14 -11 -14 -10 -5 15 14 38 5 43 -15 8 -9 -15 -13 -19 -10 -8
5 16 4 18 -6 8 -19 -19 -28 -16 -22 10 3 16 2 18 -5 8 -9 -13 -25 39 -34 118
-2 17 -13 28 -33 35 -25 9 -30 17 -33 46 -1 19 -5 50 -8 68 -5 30 -2 34 27 44
l32 11 -22 19 c-30 23 -52 23 -85 -3 -34 -27 -33 -39 3 -39 21 0 30 -6 35 -22
15 -56 -5 -116 -36 -110 -10 2 -18 7 -18 12 0 5 7 7 16 3 14 -5 15 -3 5 15 -7
12 -16 22 -21 22 -6 0 -10 11 -10 25 0 16 -6 25 -15 25 -11 0 -15 -12 -15 -45
0 -41 -2 -45 -25 -45 -23 0 -25 -3 -26 -52 0 -29 -4 -73 -9 -98 -6 -35 -8 -19
-9 75 0 130 -10 237 -21 245 -4 3 -10 15 -14 28 l-7 22 37 -25 c42 -28 84 -33
84 -10 0 9 -7 29 -15 44 -16 32 -10 131 8 131 29 0 -18 25 -50 27 -25 1 -46
12 -69 34 l-33 32 -7 -27 c-3 -14 -3 -51 0 -80 5 -37 3 -61 -5 -74 -10 -16
-10 -26 -1 -47 14 -29 16 -75 4 -75 -4 0 -18 8 -32 17 -17 12 -25 13 -28 5 -2
-7 -9 -18 -16 -25 -18 -17 -28 -89 -27 -182 1 -57 -1 -76 -8 -65 -7 9 -11 94
-11 208 0 186 -1 194 -25 242 -19 38 -25 65 -25 114 0 36 -4 67 -9 70 -5 3 -9
33 -9 67 0 33 -3 63 -6 66 -7 7 33 53 46 53 5 0 8 -8 6 -17 -6 -36 92 -24 124
15 11 13 9 15 -18 9 -42 -8 -71 1 -77 24 -6 24 -44 25 -75 3z m313 -394 c-3
-5 -15 -10 -26 -10 -10 0 -19 5 -19 10 0 6 12 10 26 10 14 0 23 -4 19 -10z m6
-51 l-10 -24 0 23 c-1 13 -5 20 -11 17 -5 -3 -10 -1 -10 5 0 7 7 10 15 6 8 -3
15 0 16 7 0 8 2 8 5 1 3 -6 0 -22 -5 -35z m-115 -76 c-11 -11 -19 6 -11 24 8
17 8 17 12 0 3 -10 2 -21 -1 -24z m-656 -93 c0 -5 -2 -10 -4 -10 -3 0 -8 5
-11 10 -3 6 -1 10 4 10 6 0 11 -4 11 -10z m817 -142 c-3 -8 -6 -5 -6 6 -1 11
2 17 5 13 3 -3 4 -12 1 -19z m-937 -233 c0 -6 -76 -45 -87 -45 -4 1 12 12 37
25 50 27 50 27 50 20z m-200 -34 c0 -5 -7 -11 -15 -15 -9 -3 -15 0 -15 9 0 8
7 15 15 15 8 0 15 -4 15 -9z m-146 -172 c2 -2 1 -44 -3 -94 l-6 -90 -52 -3
-53 -3 0 -70 0 -69 45 0 45 0 0 -95 0 -95 -45 0 -45 0 -2 -161 -3 -162 -42
-12 c-23 -7 -53 -15 -67 -19 l-26 -6 0 443 0 442 125 -1 c69 -1 127 -3 129 -5z
m2056 -113 l0 -105 -47 -3 -48 -3 -3 -57 -3 -58 46 0 45 0 0 -84 0 -85 -42 -3
-43 -3 -3 -72 -3 -73 51 0 50 0 0 -99 0 -100 -57 6 c-32 3 -85 8 -118 12 l-60
6 -3 398 c-2 313 0 399 10 402 14 5 154 21 201 24 l27 1 0 -104z m-740 -295
l0 -368 -31 -7 c-76 -15 -72 -20 -120 140 l-44 145 -3 -135 -3 -136 -59 0 -60
0 0 348 0 348 51 13 c27 7 53 11 56 8 2 -3 24 -72 48 -152 46 -156 60 -188 51
-115 -3 25 -8 98 -12 163 l-6 117 66 0 66 0 0 -369z m-1060 321 c56 -56 72
-116 77 -302 5 -168 -7 -251 -48 -331 -41 -82 -148 -98 -211 -32 -58 61 -84
195 -75 387 11 226 61 315 176 316 37 0 49 -5 81 -38z m330 16 c57 -38 84
-106 88 -218 4 -89 2 -103 -23 -158 l-27 -60 32 -137 c18 -75 30 -138 27 -141
-8 -9 -127 -22 -131 -15 -2 3 -14 58 -27 121 l-24 115 -5 -105 -5 -105 -67 -3
-68 -3 0 366 0 365 99 0 c85 0 102 -3 131 -22z m278 1 l112 -12 0 -93 0 -94
-40 0 -40 0 0 -255 0 -256 -67 3 -68 3 -3 268 -2 267 -35 0 -35 0 0 96 0 96
33 -5 c17 -3 83 -11 145 -18z m624 -11 c3 -12 3 -369 -1 -625 l-1 -93 -70 0
-70 0 0 365 0 365 69 0 c46 0 70 -4 73 -12z m318 -98 l0 -90 -40 0 -40 0 0
-275 0 -275 -70 0 -70 0 -2 263 -3 262 -37 3 -38 3 0 89 0 89 53 5 c78 9 126
12 190 14 l57 2 0 -90z"/>
<path d="M475 1368 c-8 -57 -2 -384 8 -394 17 -17 22 17 25 179 4 175 -2 257
-18 257 -5 0 -12 -19 -15 -42z"/>
<path d="M820 1290 c0 -55 2 -100 5 -100 2 0 11 13 20 30 17 33 20 106 5 144
-20 52 -30 27 -30 -74z"/>
<path d="M2052 1958 c-7 -7 -12 -26 -12 -43 0 -27 6 -34 45 -52 32 -15 47 -17
54 -9 33 42 3 116 -47 116 -15 0 -33 -5 -40 -12z"/>
<path d="M2062 1796 c-13 -29 -7 -56 13 -56 20 0 26 29 12 56 l-13 25 -12 -25z"/>
</g>
</svg>
