<?xml version="1.0" standalone="no"?>
<!DOCTYPE svg PUBLIC "-//W3C//DTD SVG 20010904//EN"
 "http://www.w3.org/TR/2001/REC-SVG-20010904/DTD/svg10.dtd">
<svg version="1.0" xmlns="http://www.w3.org/2000/svg"
 width="246.000000pt" height="345.000000pt" viewBox="0 0 246.000000 345.000000"
 preserveAspectRatio="xMidYMid meet">

<g transform="translate(0.000000,345.000000) scale(0.100000,-0.100000)"
fill="#000000" stroke="none">
<path d="M1068 3328 c38 -258 161 -947 166 -928 9 38 156 927 156 945 0 12
-13 5 -46 -24 -63 -56 -104 -68 -158 -47 -23 9 -58 32 -77 51 -19 19 -37 35
-40 35 -3 0 -3 -15 -1 -32z"/>
<path d="M803 2696 c3 -8 13 -74 23 -147 20 -159 15 -433 -10 -568 -9 -47 -14
-86 -12 -88 4 -4 396 402 396 410 0 3 -33 39 -72 80 -40 40 -128 131 -195 200
-119 123 -141 142 -130 113z"/>
<path d="M1515 2574 c-71 -75 -158 -165 -192 -200 -35 -36 -63 -68 -63 -72 0
-13 387 -412 393 -406 2 2 -2 36 -9 75 -36 189 -36 457 0 662 7 42 10 77 7 77
-3 0 -64 -62 -136 -136z"/>
<path d="M1157 1812 c-37 -224 -74 -444 -81 -490 l-13 -83 26 24 c47 45 103
77 133 77 38 0 90 -25 130 -62 17 -16 33 -26 36 -24 5 6 -149 948 -157 958 -4
4 -37 -176 -74 -400z"/>
<path d="M397 1143 c-4 -4 -7 -235 -7 -514 1 -430 3 -509 16 -519 7 -7 14 -23
14 -37 0 -21 4 -24 28 -21 21 2 28 9 30 31 4 33 22 26 22 -9 0 -22 4 -25 28
-22 l27 3 -1 220 c0 140 -4 232 -12 253 -8 24 -8 40 0 60 7 17 11 103 12 227
0 170 -2 208 -18 255 -10 30 -23 61 -29 68 -10 13 -99 17 -110 5z"/>
<path d="M570 631 c0 -336 4 -522 10 -526 6 -3 10 -17 10 -31 0 -22 4 -24 45
-24 l45 0 0 83 c0 53 -5 88 -12 95 -9 9 -14 61 -17 164 -3 136 -2 150 13 145
14 -6 16 4 16 77 0 45 -3 86 -7 90 -28 27 -34 216 -7 216 11 0 14 17 14 85 0
50 -4 85 -10 85 -5 0 -10 14 -10 30 0 29 -2 30 -45 30 l-45 0 0 -519z"/>
<path d="M703 1123 c-5 -16 -8 -120 -7 -233 0 -159 4 -216 16 -255 9 -27 19
-60 23 -72 6 -20 4 -23 -19 -23 l-26 0 0 -164 c0 -169 18 -302 43 -318 7 -5
28 -7 47 -6 56 5 60 22 60 278 0 167 -4 242 -16 290 -30 127 -29 124 -4 117
l22 -6 -5 172 c-2 95 -10 189 -16 210 -12 36 -13 37 -61 37 -46 0 -50 -2 -57
-27z m71 -313 c4 -38 3 -50 -4 -40 -9 13 -15 109 -6 99 2 -2 6 -29 10 -59z
m-4 -328 c0 -21 -2 -24 -10 -12 -13 20 -13 53 0 45 6 -3 10 -18 10 -33z m-3
-129 c-2 -21 -4 -6 -4 32 0 39 2 55 4 38 2 -18 2 -50 0 -70z"/>
<path d="M861 633 c1 -285 4 -531 8 -548 5 -23 12 -31 34 -33 l27 -3 0 504 c0
277 -3 525 -6 551 -6 43 -9 46 -35 46 l-29 0 1 -517z"/>
<path d="M960 638 c0 -282 3 -530 7 -552 l6 -38 49 4 c27 3 55 11 61 17 18 18
17 1027 -1 1059 -11 19 -21 22 -67 22 l-55 0 0 -512z m80 -33 c0 -203 -4 -315
-10 -315 -6 0 -10 106 -10 299 0 268 3 331 16 331 2 0 4 -142 4 -315z"/>
<path d="M1130 638 c0 -282 3 -530 6 -551 6 -36 8 -37 50 -37 l44 0 0 115 c0
96 -3 115 -15 115 -13 0 -15 21 -15 130 0 109 2 130 15 130 12 0 15 19 15 110
0 91 -3 110 -15 110 -12 0 -15 16 -15 80 0 64 3 80 15 80 12 0 15 19 15 115
l0 115 -50 0 -50 0 0 -512z"/>
<path d="M1260 599 l0 -550 23 3 c22 3 22 5 27 188 l5 185 8 -160 c11 -211 12
-217 45 -213 l27 3 3 548 2 547 -25 0 -25 0 -1 -182 c-1 -211 -13 -193 -24 35
l-7 147 -29 0 -29 0 0 -551z"/>
<path d="M1420 1037 c0 -93 3 -116 15 -121 13 -5 15 -62 15 -436 l0 -431 28 3
27 3 3 424 c2 351 5 427 16 440 11 12 15 47 17 121 l2 105 -62 3 -61 3 0 -114z"/>
<path d="M1596 1104 c-3 -26 -6 -273 -6 -550 l0 -503 44 1 c43 0 44 1 51 42 4
22 7 72 8 110 0 54 -3 70 -16 78 -14 8 -17 27 -17 126 0 76 4 122 11 129 7 7
14 57 17 114 4 87 2 103 -12 111 -13 7 -16 25 -16 83 0 43 4 75 10 75 6 0 10
13 10 29 0 17 4 32 9 35 5 3 12 -61 15 -147 9 -228 26 -728 26 -760 0 -26 3
-28 32 -25 32 3 33 5 44 64 6 34 16 214 23 400 20 561 28 568 30 26 l1 -493
27 3 c22 2 29 10 37 38 6 21 10 240 11 545 l0 510 -27 3 c-24 3 -27 -1 -30
-30 -4 -42 -22 -43 -26 0 -3 26 -7 32 -28 32 -20 0 -24 -5 -24 -28 0 -15 -4
-32 -10 -38 -5 -5 -11 -52 -13 -104 -2 -84 -3 -80 -5 38 l-2 132 -30 0 c-27 0
-30 -3 -30 -32 0 -17 -3 -28 -7 -24 -5 4 -8 18 -8 29 0 19 -6 22 -46 25 l-46
3 -7 -47z"/>
<path d="M1970 1121 c0 -17 -4 -33 -10 -36 -6 -4 -10 -187 -10 -516 0 -564 -5
-528 65 -515 31 6 35 11 35 36 0 17 5 30 10 30 6 0 10 34 10 81 0 72 -2 81
-20 86 -20 5 -20 14 -20 434 l0 429 -30 0 c-27 0 -30 -3 -30 -29z"/>
</g>
</svg>
