<?xml version="1.0" standalone="no"?>
<!DOCTYPE svg PUBLIC "-//W3C//DTD SVG 20010904//EN"
 "http://www.w3.org/TR/2001/REC-SVG-20010904/DTD/svg10.dtd">
<svg version="1.0" xmlns="http://www.w3.org/2000/svg"
 width="246.000000pt" height="345.000000pt" viewBox="0 0 246.000000 345.000000"
 preserveAspectRatio="xMidYMid meet">

<g transform="translate(0.000000,345.000000) scale(0.100000,-0.100000)"
fill="#000000" stroke="none">
<path d="M1177 3349 c-274 -66 -488 -531 -563 -1222 -20 -179 -22 -604 -5
-772 16 -154 42 -327 53 -347 8 -16 2 -18 -67 -18 -53 0 -75 -4 -75 -12 0 -7
-5 -5 -11 5 -7 12 -23 17 -60 17 -45 0 -50 -3 -60 -27 -6 -15 -16 -31 -22 -35
-9 -6 -9 -8 1 -8 9 0 12 -31 13 -117 1 -65 3 -110 6 -101 6 23 30 23 36 1 3
-10 5 26 6 80 1 90 2 97 21 97 19 0 20 -7 22 -132 1 -85 3 -115 7 -83 9 72 31
71 31 -2 0 -31 2 -54 5 -51 4 3 6 80 7 172 0 95 4 164 9 160 5 -3 9 -61 9
-130 0 -115 1 -124 16 -109 15 14 17 14 28 0 10 -14 15 -14 49 0 33 14 37 14
37 0 0 -8 -5 -23 -11 -33 -9 -14 -8 -25 3 -47 l15 -28 0 34 c0 112 7 326 10
287 3 -28 9 -48 16 -48 8 0 8 -3 -1 -9 -11 -6 -10 -20 3 -72 9 -35 21 -72 26
-82 9 -16 11 -17 27 0 16 16 17 14 24 -38 3 -30 6 -77 7 -105 1 -27 5 -54 10
-60 5 -5 12 -20 16 -33 6 -20 4 -23 -9 -18 -14 6 -16 3 -11 -13 6 -17 2 -20
-30 -20 -33 0 -36 2 -30 21 5 15 4 19 -4 15 -6 -4 -11 -16 -11 -27 0 -17 8
-19 85 -19 47 0 85 4 85 9 0 4 -11 6 -25 3 -35 -6 -60 5 -47 21 8 9 42 222 42
260 0 3 9 7 20 10 16 4 20 0 20 -19 0 -17 6 -24 20 -24 13 0 20 7 20 19 0 24
21 32 38 15 8 -8 10 -23 6 -40 -5 -19 -4 -25 5 -20 8 5 11 -16 11 -77 0 -62 4
-88 15 -97 31 -25 37 -1 30 111 -5 81 -4 113 5 124 18 21 40 18 40 -5 0 -11 7
-23 16 -27 9 -3 11 -9 6 -12 -5 -3 -11 -40 -13 -81 l-4 -75 35 -4 35 -5 -40
-7 -40 -7 40 2 c36 1 40 4 43 28 6 54 23 28 20 -29 l-3 -58 -73 -3 c-68 -3
-73 -1 -68 15 4 14 1 19 -14 19 -15 0 -18 -5 -14 -18 4 -15 -1 -18 -28 -18
l-33 0 -2 65 c-2 70 -15 105 -38 105 -21 0 -25 -12 -29 -86 -2 -41 -1 -62 5
-53 6 10 9 4 9 -18 l0 -33 -92 -2 c-89 -2 -90 -2 -21 -5 l72 -4 30 -54 c45
-79 153 -190 216 -220 121 -59 228 -38 341 67 35 33 85 91 110 129 41 63 49
69 79 69 54 0 52 20 -2 22 l-48 1 45 7 45 7 -47 1 c-26 1 -50 -2 -53 -8 -10
-16 -111 -12 -125 5 -7 9 -29 15 -52 15 -35 0 -39 2 -28 15 9 11 9 15 1 15 -7
0 -10 4 -7 9 3 5 -1 30 -8 57 -8 27 -17 61 -20 77 -4 15 -12 27 -19 27 -16 0
-10 -149 6 -169 10 -12 9 -13 -3 -6 -13 8 -13 7 -1 -8 12 -16 9 -17 -34 -17
-43 0 -46 1 -34 17 12 15 12 16 -1 8 -12 -6 -13 -5 -2 6 7 8 12 42 12 90 0 42
3 97 6 122 6 44 8 45 45 49 34 3 40 0 48 -22 17 -46 38 -124 51 -188 7 -34 17
-65 23 -69 6 -4 8 0 4 10 -3 10 -3 17 1 17 4 0 8 52 7 115 0 92 3 118 15 125
8 5 18 10 23 10 4 0 7 -52 7 -115 l0 -115 25 0 25 0 0 115 c0 108 1 115 20
115 22 0 26 -29 21 -183 -2 -52 1 -77 9 -77 6 0 8 -6 4 -12 -4 -8 -3 -10 2 -5
12 11 11 7 13 145 1 110 2 118 21 119 17 2 20 -4 20 -38 0 -21 4 -39 9 -39 5
0 7 17 4 39 -4 29 -1 39 11 44 11 4 16 1 16 -10 0 -13 3 -14 12 -5 20 20 28
14 29 -25 l2 -38 10 38 c18 62 36 46 40 -35 1 -40 4 5 5 101 2 152 4 176 20
188 16 14 16 14 -3 8 -15 -5 -17 -3 -8 6 25 25 33 -3 34 -129 1 -70 3 -119 6
-110 4 14 15 18 59 18 36 0 54 -4 54 -12 0 -7 6 -5 11 6 13 21 8 243 -5 264
-5 8 -42 12 -119 13 -69 1 -97 4 -72 8 l39 6 13 75 c45 265 60 718 34 1000
-50 538 -205 984 -406 1169 -80 73 -187 110 -268 90z m97 -241 c22 -6 48 -17
56 -24 8 -6 25 -15 37 -18 13 -4 22 -11 20 -16 -1 -4 12 -21 29 -37 41 -37
124 -170 156 -253 71 -180 117 -394 135 -630 16 -200 6 -505 -21 -635 l-13
-60 -11 35 c-6 19 -21 105 -33 190 -11 85 -29 181 -40 214 -10 33 -16 62 -14
64 11 11 35 -10 35 -30 0 -13 4 -29 9 -37 11 -17 17 0 26 79 4 30 12 72 17 93
8 27 8 44 0 62 -10 21 -9 25 3 25 21 0 19 36 -5 88 -21 47 -26 49 -51 26 -17
-15 -22 -13 -77 43 -73 72 -94 112 -96 177 -1 46 1 51 22 54 20 3 22 7 16 40
-3 20 -17 61 -29 90 -20 43 -28 52 -49 52 -24 0 -26 4 -26 39 0 22 -4 51 -10
65 -8 22 -16 26 -49 26 -53 0 -71 8 -83 39 -8 22 -12 23 -20 11 -8 -13 -16 -9
-50 22 -33 31 -41 45 -47 91 -4 30 -4 64 0 75 10 27 44 45 69 37 12 -4 20 -2
20 4 0 14 23 14 74 -1z m-204 -110 c1 -13 9 -47 19 -76 20 -59 19 -60 -48 -17
-46 29 -47 31 -24 80 19 41 53 49 53 13z m-66 -155 l28 -33 -34 0 c-18 0 -49
-9 -69 -19 l-36 -19 29 54 c15 31 28 63 29 72 0 15 2 15 12 -2 7 -11 25 -34
41 -53z m216 -203 c0 -4 -3 -23 -7 -41 l-6 -33 -12 34 c-7 19 -10 40 -8 47 5
12 33 7 33 -7z m138 -22 c-6 -18 -25 -20 -31 -3 -5 10 0 15 14 15 12 0 19 -5
17 -12z m-43 -68 c14 -27 25 -58 25 -70 0 -26 -29 -26 -64 1 -22 17 -26 28
-26 70 0 42 3 49 20 49 14 0 27 -15 45 -50z m-307 -25 c-13 -29 -28 -33 -28
-7 0 22 8 32 26 32 11 0 11 -5 2 -25z m-89 -28 c-19 -38 -25 -43 -54 -43 -28
1 -32 4 -24 18 5 10 21 21 34 24 13 3 27 15 30 25 4 10 13 19 21 19 11 0 9 -9
-7 -43z m339 -34 c-10 -2 -18 -9 -18 -14 0 -5 -4 -9 -10 -9 -5 0 -10 7 -10 15
0 10 9 15 28 14 16 -1 20 -3 10 -6z m-50 -59 l23 -7 -27 -28 c-36 -37 -41 -36
-36 6 4 38 5 38 40 29z m-232 -71 c-11 -11 -17 4 -9 23 7 18 8 18 11 1 2 -10
1 -21 -2 -24z m31 -25 c-3 -8 -6 -5 -6 6 -1 11 2 17 5 13 3 -3 4 -12 1 -19z
m345 -15 c14 -16 44 -75 67 -133 23 -58 55 -127 72 -154 23 -38 29 -57 25 -80
-3 -17 -2 -48 3 -68 8 -34 7 -38 -11 -38 -29 0 -56 36 -128 166 -36 65 -84
144 -108 176 -41 57 -42 59 -27 87 14 28 60 71 74 71 4 0 19 -12 33 -27z
m-288 -221 c9 -18 27 -39 41 -48 32 -21 55 -7 86 50 14 26 31 46 40 46 10 0
31 -16 48 -35 34 -39 112 -194 133 -264 7 -24 20 -46 28 -49 8 -3 26 -14 39
-24 33 -25 55 -23 84 12 l25 29 11 -65 c7 -35 18 -128 26 -207 8 -78 17 -158
20 -177 4 -26 3 -31 -4 -20 -9 12 -11 10 -12 -10 0 -18 -6 -10 -19 27 -29 82
-79 169 -125 219 l-43 46 -124 -7 c-112 -7 -129 -6 -170 12 -48 22 -74 52
-103 123 -17 39 -19 77 -22 285 -3 250 6 335 18 179 4 -51 14 -105 23 -122z
m481 129 c7 -22 -38 -77 -54 -66 -15 8 -14 78 1 93 14 14 44 -1 53 -27z m-651
10 c8 -13 -3 -19 -24 -14 -11 3 -17 9 -14 14 7 11 31 12 38 0z m215 0 c9 -6
11 -20 6 -50 -7 -44 -3 -48 35 -26 42 24 41 17 -3 -25 l-42 -40 -17 21 c-18
21 -23 65 -12 107 7 24 12 26 33 13z m-170 -165 c-9 -8 -10 -7 -5 7 3 10 7 28
7 40 2 16 3 14 6 -7 3 -16 -1 -34 -8 -40z m-32 -3 c-3 -10 -5 -2 -5 17 0 19 2
27 5 18 2 -10 2 -26 0 -35z m663 -184 c0 -9 -7 -22 -15 -29 -12 -10 -15 -7
-21 14 -3 14 -3 38 1 53 l7 28 13 -25 c8 -14 14 -32 15 -41z m-573 -31 c-3 -7
-5 -2 -5 12 0 14 2 19 5 13 2 -7 2 -19 0 -25z m-163 -58 c-22 -9 -29 -6 -20 9
4 6 14 7 23 4 15 -6 14 -7 -3 -13z m220 -195 c-7 -18 -8 -18 -15 1 -4 10 -8
26 -8 34 -1 12 1 12 14 -1 10 -10 13 -22 9 -34z m-34 -60 c0 -3 -4 -5 -9 -5
-5 0 -14 14 -20 31 -17 50 -13 57 9 16 11 -20 20 -39 20 -42z m130 -40 c0 -8
-2 -15 -4 -15 -2 0 -6 7 -10 15 -3 8 -1 15 4 15 6 0 10 -7 10 -15z m-363 -47
c-3 -8 -6 -5 -6 6 -1 11 2 17 5 13 3 -3 4 -12 1 -19z m323 -33 c6 -8 10 -22 8
-32 -3 -14 -8 -11 -21 15 -18 32 -9 44 13 17z m-303 -67 c-3 -8 -6 -5 -6 6 -1
11 2 17 5 13 3 -3 4 -12 1 -19z m20 -70 c-3 -8 -6 -5 -6 6 -1 11 2 17 5 13 3
-3 4 -12 1 -19z m430 -15 c12 -31 -14 -33 -40 -3 -15 16 -27 32 -27 34 0 11
62 -18 67 -31z m350 -15 c-3 -8 -6 -5 -6 6 -1 11 2 17 5 13 3 -3 4 -12 1 -19z
m10 -40 c-3 -8 -6 -5 -6 6 -1 11 2 17 5 13 3 -3 4 -12 1 -19z m-261 -62 c3 -8
1 -22 -4 -32 -8 -14 -11 -12 -20 15 -9 26 -8 31 4 31 8 0 17 -6 20 -14z m-436
-92 c0 -6 -7 -11 -15 -11 -10 0 -14 6 -10 14 3 8 5 20 5 26 0 15 20 -14 20
-29z m513 -21 c3 -5 -14 -8 -38 -8 -24 0 -41 3 -38 8 2 4 19 7 38 7 19 0 36
-3 38 -7z m-593 -10 c0 -5 -24 -7 -52 -5 -95 5 -104 9 -25 11 42 0 77 -2 77
-6z m125 -3 c4 -6 -13 -10 -45 -10 -32 0 -49 4 -45 10 3 6 24 10 45 10 21 0
42 -4 45 -10z m149 2 c2 -4 -12 -6 -32 -4 -56 5 -62 10 -15 11 23 1 44 -3 47
-7z m199 1 c-13 -2 -35 -2 -50 0 -16 2 -5 4 22 4 28 0 40 -2 28 -4z m257 -6
c8 -7 21 -22 28 -35 10 -18 10 -22 -3 -22 -8 0 -15 8 -15 19 0 29 -25 43 -72
39 -33 -2 -45 -8 -53 -25 -5 -13 -16 -25 -24 -28 -15 -6 -10 2 28 48 17 20 88
23 111 4z m100 -4 c0 -12 -3 -14 -8 -6 -4 6 -23 13 -42 16 -33 4 -33 4 8 5 34
2 42 -1 42 -15z m57 -45 c-3 -8 -6 -5 -6 6 -1 11 2 17 5 13 3 -3 4 -12 1 -19z
m-607 8 c0 -2 -8 -10 -17 -17 -16 -13 -17 -12 -4 4 13 16 21 21 21 13z m-76
-126 c-5 -31 -9 -37 -19 -26 -7 6 -16 27 -20 44 -7 33 -25 44 -25 15 0 -9 -3
-14 -6 -10 -3 3 -1 22 6 42 l12 37 29 -32 c25 -27 28 -37 23 -70z m874 17 c3
-62 1 -67 -18 -67 -18 0 -20 6 -20 55 0 42 3 55 15 55 8 0 15 5 15 11 0 6 -7
9 -15 5 -8 -3 -15 -1 -15 5 0 6 8 9 18 7 14 -3 18 -16 20 -71z m-1455 56 c-7
-2 -19 -2 -25 0 -7 3 -2 5 12 5 14 0 19 -2 13 -5z m160 0 c-7 -2 -19 -2 -25 0
-7 3 -2 5 12 5 14 0 19 -2 13 -5z m112 -3 c3 -5 -1 -10 -10 -10 -9 0 -13 5
-10 10 3 6 8 10 10 10 2 0 7 -4 10 -10z m80 0 c3 -5 -1 -10 -10 -10 -9 0 -13
5 -10 10 3 6 8 10 10 10 2 0 7 -4 10 -10z m718 3 c-7 -2 -19 -2 -25 0 -7 3 -2
5 12 5 14 0 19 -2 13 -5z m-905 -95 c-3 -70 -6 -83 -20 -86 -16 -3 -18 6 -18
82 0 80 1 86 20 86 20 0 21 -5 18 -82z m527 -58 c-3 -5 -12 -10 -18 -10 -7 0
-6 4 3 10 19 12 23 12 15 0z m372 -236 c-3 -3 -12 -4 -19 -1 -8 3 -5 6 6 6 11
1 17 -2 13 -5z m-204 -96 c-2 -5 -22 -8 -44 -8 -21 0 -39 3 -39 8 0 4 20 7 44
7 24 0 42 -3 39 -7z m117 2 c0 -5 -18 -10 -40 -10 -22 0 -40 5 -40 10 0 6 18
10 40 10 22 0 40 -4 40 -10z m-307 -7 c-35 -2 -91 -2 -125 0 -35 2 -7 3 62 3
69 0 97 -1 63 -3z"/>
<path d="M163 965 c1 -19 4 -35 7 -35 3 0 4 -53 2 -117 -3 -107 -2 -115 13
-103 14 12 18 12 26 -1 5 -8 9 -25 10 -39 0 -14 5 -36 9 -50 5 -15 6 0 3 38
-5 52 -3 62 10 62 8 0 17 -5 19 -10 2 -6 13 -2 24 8 l21 20 -3 -52 -3 -51 11
43 c12 48 34 56 41 15 3 -16 5 36 4 115 0 78 3 145 6 149 4 3 7 15 7 25 0 14
-8 18 -34 18 l-34 0 -12 -102 c-7 -57 -16 -112 -20 -123 -8 -22 -10 -14 -31
138 l-12 87 -34 0 c-32 0 -33 -1 -30 -35z"/>
<path d="M2160 940 c0 -53 2 -60 20 -60 19 0 20 -7 21 -92 0 -51 3 -87 6 -80
2 6 13 12 24 12 18 0 19 -9 19 -129 0 -72 3 -132 8 -134 4 -3 6 91 4 209 -3
220 -3 220 36 215 13 -2 17 56 6 97 -6 20 -12 22 -75 22 l-69 0 0 -60z m40
-40 c0 -5 -4 -10 -10 -10 -5 0 -10 5 -10 10 0 6 5 10 10 10 6 0 10 -4 10 -10z
m80 0 c0 -5 -4 -10 -10 -10 -5 0 -10 5 -10 10 0 6 5 10 10 10 6 0 10 -4 10
-10z"/>
<path d="M2020 976 c0 -8 4 -17 9 -20 5 -4 8 -18 6 -34 -19 -140 -26 -214 -21
-219 3 -4 6 -1 6 5 0 7 7 12 15 12 8 0 15 -9 15 -20 0 -14 6 -20 23 -19 16 0
18 2 7 7 -12 5 -14 15 -9 37 4 17 7 22 8 11 1 -14 7 -17 25 -14 19 4 26 0 29
-16 10 -51 6 34 -7 126 -9 69 -9 101 -2 109 8 9 7 10 -4 4 -13 -8 -13 -6 -2 8
21 25 5 37 -49 37 -36 0 -49 -4 -49 -14z"/>
<path d="M1877 693 c-4 -3 -6 -22 -6 -42 1 -23 3 -28 6 -13 3 14 12 22 26 23
20 1 20 2 -3 9 -24 8 -24 8 -2 9 12 1 22 6 22 11 0 11 -33 14 -43 3z"/>
<path d="M581 638 c1 -24 4 -33 6 -20 5 28 20 29 28 1 4 -11 9 -18 11 -16 8 8
-18 57 -27 51 -5 -3 -6 2 -3 10 3 9 1 16 -5 16 -7 0 -10 -17 -10 -42z"/>
<path d="M1317 673 c-4 -3 -7 -11 -7 -17 0 -6 5 -5 12 2 6 6 9 14 7 17 -3 3
-9 2 -12 -2z"/>
<path d="M352 640 c0 -14 2 -19 5 -12 2 6 2 18 0 25 -3 6 -5 1 -5 -13z"/>
<path d="M2142 630 c0 -14 2 -19 5 -12 2 6 2 18 0 25 -3 6 -5 1 -5 -13z"/>
<path d="M890 611 c0 -4 11 -6 25 -3 14 2 25 6 25 8 0 2 -11 4 -25 4 -14 0
-25 -4 -25 -9z"/>
<path d="M2063 613 c9 -2 23 -2 30 0 6 3 -1 5 -18 5 -16 0 -22 -2 -12 -5z"/>
<path d="M290 590 c0 -5 5 -10 10 -10 6 0 10 5 10 10 0 6 -4 10 -10 10 -5 0
-10 -4 -10 -10z"/>
<path d="M1652 540 c0 -36 3 -54 5 -40 3 14 9 29 14 35 13 13 11 28 -6 51 -13
17 -14 13 -13 -46z"/>
<path d="M2046 584 c-3 -9 -5 -30 -5 -47 2 -29 2 -29 8 8 5 31 11 41 31 46
l25 7 -26 1 c-16 1 -29 -5 -33 -15z"/>
<path d="M1722 570 c0 -14 2 -19 5 -12 2 6 2 18 0 25 -3 6 -5 1 -5 -13z"/>
<path d="M1874 540 c1 -28 5 -36 24 -38 12 -2 22 1 22 7 0 6 -9 11 -19 11 -14
0 -21 9 -24 28 -4 20 -4 18 -3 -8z"/>
<path d="M223 520 c0 -25 2 -35 4 -22 2 12 2 32 0 45 -2 12 -4 2 -4 -23z"/>
<path d="M2152 540 c0 -14 2 -19 5 -12 2 6 2 18 0 25 -3 6 -5 1 -5 -13z"/>
<path d="M282 520 c0 -19 2 -27 5 -17 2 9 2 25 0 35 -3 9 -5 1 -5 -18z"/>
<path d="M352 525 c0 -16 2 -22 5 -12 2 9 2 23 0 30 -3 6 -5 -1 -5 -18z"/>
<path d="M171 524 c0 -11 3 -14 6 -6 3 7 2 16 -1 19 -3 4 -6 -2 -5 -13z"/>
<path d="M1713 505 c0 -22 2 -30 4 -17 2 12 2 30 0 40 -3 9 -5 -1 -4 -23z"/>
<path d="M1961 514 c0 -11 3 -14 6 -6 3 7 2 16 -1 19 -3 4 -6 -2 -5 -13z"/>
<path d="M438 503 c6 -2 18 -2 25 0 6 3 1 5 -13 5 -14 0 -19 -2 -12 -5z"/>
<path d="M220 460 c0 -5 5 -10 11 -10 5 0 7 5 4 10 -3 6 -8 10 -11 10 -2 0 -4
-4 -4 -10z"/>
<path d="M295 460 c-3 -5 -1 -10 4 -10 6 0 11 5 11 10 0 6 -2 10 -4 10 -3 0
-8 -4 -11 -10z"/>
<path d="M504 447 c-5 -16 -14 -18 -59 -15 -29 1 -51 0 -48 -4 14 -24 143 4
143 31 0 16 -30 6 -36 -12z"/>
<path d="M594 452 c6 -18 2 -21 -36 -25 l-43 -4 48 -1 c40 -2 47 1 47 17 0 11
-5 23 -11 27 -7 4 -9 0 -5 -14z"/>
<path d="M1725 460 c-3 -5 -1 -10 4 -10 6 0 11 5 11 10 0 6 -2 10 -4 10 -3 0
-8 -4 -11 -10z"/>
<path d="M1795 448 c5 -14 -2 -17 -37 -21 -24 -2 7 -4 67 -5 103 -2 112 0 140
23 17 13 25 24 18 25 -6 0 -19 -8 -28 -17 -12 -11 -36 -17 -74 -18 -65 -2 -76
2 -61 20 9 11 7 14 -9 12 -15 -1 -19 -6 -16 -19z"/>
<path d="M2037 451 c4 -17 -1 -20 -34 -24 l-38 -4 43 -1 c35 -2 42 1 42 17 0
11 -4 22 -9 25 -5 4 -7 -3 -4 -13z"/>
<path d="M2169 458 c11 -15 11 -19 -3 -24 -9 -3 -28 -4 -41 -2 -14 3 -25 2
-25 -3 0 -4 38 -8 85 -8 47 0 85 3 85 7 0 4 -18 6 -40 4 -41 -4 -49 4 -27 28
10 12 9 12 -4 2 -12 -9 -19 -9 -29 1 -12 10 -12 9 -1 -5z"/>
<path d="M1696 444 c-8 -21 -8 -34 2 -34 4 0 9 11 10 25 2 28 -3 32 -12 9z"/>
<path d="M264 435 c-3 -8 -4 -20 -2 -27 3 -7 7 -1 10 15 6 29 1 36 -8 12z"/>
<path d="M690 439 c0 -7 -10 -9 -25 -7 -14 3 -25 1 -25 -3 0 -5 14 -9 30 -9
20 0 30 5 30 15 0 8 -2 15 -5 15 -3 0 -5 -5 -5 -11z"/>
<path d="M1455 438 c6 -14 19 -18 60 -18 41 0 54 4 60 18 5 14 4 15 -6 5 -7
-7 -31 -13 -54 -13 -23 0 -47 6 -54 13 -10 10 -11 9 -6 -5z"/>
<path d="M178 423 c12 -2 32 -2 45 0 12 2 2 4 -23 4 -25 0 -35 -2 -22 -4z"/>
<path d="M313 423 c15 -2 37 -2 50 0 12 2 0 4 -28 4 -27 0 -38 -2 -22 -4z"/>
<path d="M1843 413 c-63 -2 -113 -8 -113 -13 0 -12 211 -1 225 11 5 5 7 8 5 7
-3 -1 -56 -4 -117 -5z"/>
<path d="M160 400 c0 -5 18 -10 40 -10 22 0 40 5 40 10 0 6 -18 10 -40 10 -22
0 -40 -4 -40 -10z"/>
<path d="M295 400 c3 -5 21 -10 40 -10 19 0 37 5 40 10 4 6 -12 10 -40 10 -28
0 -44 -4 -40 -10z"/>
<path d="M405 400 c3 -5 26 -10 50 -10 24 0 47 5 50 10 4 6 -15 10 -50 10 -35
0 -54 -4 -50 -10z"/>
<path d="M525 400 c3 -5 21 -10 40 -10 19 0 37 5 40 10 4 6 -12 10 -40 10 -28
0 -44 -4 -40 -10z"/>
<path d="M653 403 c9 -2 25 -2 35 0 9 3 1 5 -18 5 -19 0 -27 -2 -17 -5z"/>
<path d="M1988 403 c12 -2 32 -2 45 0 12 2 2 4 -23 4 -25 0 -35 -2 -22 -4z"/>
<path d="M2143 403 c26 -2 68 -2 95 0 26 2 4 3 -48 3 -52 0 -74 -1 -47 -3z"/>
</g>
</svg>
